<svg width="73" height="73" viewBox="0 0 73 73" fill="none" xmlns="http://www.w3.org/2000/svg">
<path d="M35.2671 41.8184C38.4377 41.8893 41.2968 42.8279 43.6275 44.8904C45.2325 46.3141 45.8359 48.345 45.6545 50.5298C45.4021 53.6176 43.6827 55.8655 41.3757 57.7111C37.4912 60.8147 32.9916 61.9307 28.1528 61.0986C24.8047 60.5229 21.9337 58.9257 20.8295 55.3686C20.0763 52.9433 20.7191 50.6363 22.0915 48.6211C24.43 45.1862 27.7821 43.2105 31.8282 42.3823C32.964 42.1496 34.1155 42.0037 35.2631 41.8184H35.2671ZM23.3061 48.9326C28.2474 45.1428 33.8079 43.5338 39.9994 44.0741C35.3893 41.7434 27.1551 43.1868 23.3061 48.9326Z" fill="#92C83E"/>
<path d="M52.5846 12.5412C51.157 10.5024 49.0708 9.52044 46.7125 9.92268C44.0545 10.3801 42.2918 12.0641 41.2033 14.4697C40.4225 16.1891 40.1425 18.0228 40.1504 19.9C40.1543 20.6887 40.2648 21.4735 40.3397 22.2583C40.4186 23.043 40.4935 23.8318 40.6157 24.6126C40.8681 26.2058 41.1678 27.7951 41.4202 29.3883C41.4794 29.7629 41.4281 30.1534 41.4281 30.5359C41.3887 30.5477 41.3453 30.5556 41.3059 30.5635C41.1402 30.1612 40.9825 29.7551 40.8129 29.3528C39.9098 27.1838 39.0698 24.9833 38.0721 22.8577C37.3465 21.3157 36.1437 20.1208 34.6136 19.3242C34.1127 19.064 33.5527 18.918 33.0204 18.7209C33.0006 18.8865 33.0204 18.9417 33.0637 18.9693C34.231 19.7935 34.9133 20.9293 35.284 22.2938C35.6626 23.6898 36.2304 24.9951 37.1454 26.1427C38.0839 27.3219 39.0501 28.4852 39.9019 29.7235C40.8445 31.088 41.3847 32.6299 41.4636 34.3099C41.5543 36.2541 41.369 38.1746 40.9746 40.0755C40.7814 41.0022 40.5093 41.9132 40.2608 42.8794C40.1859 42.8399 40.1149 42.8044 40.0479 42.765C40.7814 43.463 41.3335 44.3622 41.6095 45.3402C41.5859 45.21 41.5543 45.0799 41.5109 44.9419C41.3532 44.4371 41.1323 43.9047 41.1678 43.4039C41.2743 41.9013 41.4597 40.4067 41.6726 38.916C41.9605 36.8693 42.5875 34.9054 43.321 32.9809C44.4055 30.1336 45.6596 27.3416 46.192 24.3089C46.4759 22.6921 46.4483 21.087 46.2511 19.4701C46.0658 17.9637 45.7621 16.4809 46.0855 14.9232C46.6061 12.4032 49.4612 11.0032 51.7091 12.277C52.0325 12.4624 52.3401 12.6753 52.7541 12.9395C52.6713 12.7305 52.6477 12.6241 52.5885 12.5412H52.5846ZM35.3076 20.3653C36.8969 20.9687 38.9594 24.7427 39.1605 26.2965C37.9025 24.3642 36.6209 22.3884 35.3076 20.3653ZM44.3937 13.2314C43.4236 14.1936 43.0016 15.3846 42.7492 16.7057C42.3627 18.7485 42.8202 20.74 42.9385 22.7552C42.9977 23.7687 42.9503 24.7901 42.9503 25.8075C42.9267 25.8075 42.8991 25.8075 42.8754 25.8036C42.7808 24.5022 42.6703 23.2008 42.5915 21.8994C42.5008 20.3929 42.3351 18.8786 42.3864 17.3721C42.4416 15.775 42.832 14.2291 44.1137 13.0894C44.2557 12.9632 44.4174 12.8567 44.5712 12.7424C44.6145 12.7818 44.654 12.8173 44.6974 12.8567C44.5948 12.979 44.5081 13.117 44.3937 13.2274V13.2314Z" fill="#92C83E"/>
<path d="M36.4784 68.911C18.4601 68.911 3.8017 54.2526 3.8017 36.2343C3.8017 18.216 18.4601 3.55762 36.4784 3.55762C54.4967 3.55762 69.1551 18.216 69.1551 36.2343C69.1551 54.2526 54.4967 68.911 36.4784 68.911V68.911ZM36.4784 4.14916C18.7874 4.14916 4.39324 18.5433 4.39324 36.2343C4.39324 53.9253 18.7874 68.3194 36.4784 68.3194C54.1694 68.3194 68.5635 53.9253 68.5635 36.2343C68.5635 18.5433 54.1694 4.14916 36.4784 4.14916V4.14916Z" fill="#92C83E"/>
<path d="M36.502 73C16.3738 73 0 56.6262 0 36.502C0 16.3778 16.3738 0 36.502 0C56.6301 0 73 16.3738 73 36.502C73 56.6301 56.6262 73 36.502 73V73ZM36.502 1.18308C17.0245 1.18308 1.18308 17.0285 1.18308 36.502C1.18308 55.9755 17.0245 71.8169 36.502 71.8169C55.9794 71.8169 71.8169 55.9755 71.8169 36.502C71.8169 17.0285 55.9755 1.18308 36.502 1.18308Z" fill="#92C83E"/>
</svg>
